# AST/ASF file generated using VICON BodyLanguage
# -----------------------------------------------
:version 1.10
:name VICON
:units
  mass 1.0
  length 0.45
  angle deg
:documentation
   .ast/.asf automatically generated from VICON data using
   VICON BodyBuilder and BodyLanguage model FoxedUp or BRILLIANT.MOD
:root
   order TX TY TZ RX RY RZ
   axis XYZ
   position 0 0 0  
   orientation 0 -0 0 
:bonedata
  begin
     id 1 
     name lhipjoint
     direction 0.432694 -0.693742 0.575759 
     length 2.19277 
     axis 0 -0 0  XYZ
  end
  begin
     id 2 
     name lfemur
     direction 0.34202 -0.939693 0  
     length 6.69022  
     axis 0 -0 20  XYZ
    dof rx ry rz
    limits (-160.0 20.0)
           (-70.0 70.0)
           (-60.0 70.0)
  end
  begin
     id 3 
     name ltibia
     direction 0.34202 -0.939693 0   
     length 6.50337   
     axis 0 -0 20   XYZ
    dof rx
    limits (-10.0 170.0)
  end
  begin
     id 4 
     name lfoot
     direction 0.158999 -0.435969 0.885805   
     length 2.70564   
     axis -90 -1.13533e-015 20   XYZ
    dof rx rz
    limits (-45.0 90.0)
           (-70.0 20.0)
  end
  begin
     id 5 
     name ltoes
     direction -0.00592919 0.00964381 0.999936   
     length 1.29929   
     axis -90 -1.13533e-015 20   XYZ
    dof rx
    limits (-90.0 20.0)
  end
  begin
     id 6 
     name rhipjoint
     direction -0.414359 -0.700339 0.581234   
     length 2.17212  
     axis 0 -0 0  XYZ 
  end
  begin
     id 7 
     name rfemur
     direction -0.34202 -0.939693 0   
     length 7.17659   
     axis 0 -0 -20   XYZ
    dof rx ry rz
    limits (-160.0 20.0)
           (-70.0 70.0)
           (-70.0 60.0)
  end
  begin
     id 8 
     name rtibia
     direction -0.34202 -0.939693 0   
     length 6.36669   
     axis 0 -0 -20   XYZ
    dof rx
    limits (-10.0 170.0)
 end
 begin
     id 9 
     name rfoot
     direction -0.137064 -0.37658 0.916188   
     length 2.22351  
     axis -90 1.13533e-015 -20   XYZ
    dof rx rz
    limits (-45.0 90.0)
           (-20.0 70.0)
  end
  begin
     id 10 
     name rtoes
     direction -0.000784077 -0.00289101 0.999996   
     length 1.09522   
     axis -90 1.13533e-015 -20   XYZ
    dof rx
    limits (-90.0 20.0)
  end
  begin
     id 11 
     name lowerback
     direction -0.0176242 0.984912 -0.172157   
     length 1.65301   
     axis 0 -0 0   XYZ
    dof rx ry rz
    limits (-20.0 45.0)
           (-30.0 30.0)
           (-30.0 30.0)
  end
  begin
     id 12 
     name upperback
     direction -0.00218128 0.998776 -0.0494072   
     length 1.67776   
     axis 0 -0 0   XYZ
    dof rx ry rz
    limits (-20.0 45.0)
           (-30.0 30.0)
           (-30.0 30.0)
  end
  begin
     id 13 
     name thorax
     direction 0.00544186 0.999658 0.0255711   
     length 1.72293   
     axis 0 -0 0   XYZ
    dof rx ry rz
    limits (-20.0 45.0)
           (-30.0 30.0)
           (-30.0 30.0)
  end
  begin
     id 14 
     name lowerneck
     direction -0.105325 0.983841 0.144785   
     length 2.14226   
     axis 0 -0 0   XYZ
    dof rx ry rz
    limits (-20.0 45.0)
           (-30.0 30.0)
           (-30.0 30.0)
  end
  begin
     id 15 
     name upperneck
     direction 0.0547957 0.988053 -0.144041   
     length 2.17508   
     axis 0 -0 0   XYZ
    dof rx ry rz
    limits (-20.0 45.0)
           (-30.0 30.0)
           (-30.0 30.0)
  end
  begin
     id 16
     name head
     direction 0.0247488 0.997534 -0.0656813  
     length 2.20048  
     axis 0 -0 0   XYZ
    dof rx ry rz
    limits (-20.0 45.0)
           (-30.0 30.0)
           (-30.0 30.0)
  end
  begin
     id 17 
     name lclavicle
     direction 0.820559 0.567247 -0.0701026  
     length 4.09615  
     axis 0 -0 0   XYZ
    dof ry rz
    limits (-20.0 10.0)
           (0.0 20.0)
  end
  begin
     id 18 
     name lhumerus
     direction 0.999977 -0.0067566 -9.96392e-005   
     length 4.59333   
     axis -180 -30 -90   XYZ
    dof rx ry rz
    limits (-60.0 90.0)
           (-90.0 90.0)
           (-90.0 90.0)
  end
  begin
     id 19
     name lradius
     direction 1 -4.48982e-011 -2.53425e-027   
     length 2.81151   
     axis -180 -30 -90   XYZ
    dof rx
    limits (-10.0 170.0)
  end
  begin
     id 20
     name lwrist
     direction 1 -4.48939e-011 -7.39254e-028   
     length 1.40576   
     axis 2.56395e-016 90 90   XYZ
    dof ry
    limits (-180.0 0.0)
 end
  begin
     id 21 
     name lhand
     direction 1 -4.48939e-011 -1.47851e-027   
     length 0.895651   
     axis 9.43423e-016 90 90   XYZ
    dof rx rz
    limits (-90.0 90.0)
           (-45.0 45.0)
  end
  begin
     id 22 
     name lfingers
     direction 1 -4.48978e-011 -2.95702e-027   
     length 0.722097   
     axis 1.88685e-015 90 90   XYZ
    dof rx
    limits (0.0 90.0)
  end
  begin
     id 23
     name lthumb
     direction 0.707107 -6.34931e-011 0.707107   
     length 1.03679   
     axis -90 45 -9.86935e-015   XYZ
    dof rx rz
    limits (-45.0 45.0)
           (-45.0 45.0)
  end
  begin
     id 24 
     name rclavicle
     direction -0.831414 0.553102 -0.0531864   
     length 4.24872  
     axis 0 -0 0   XYZ 
    dof ry rz
    limits (-10.0 20.0)
           (-20.0 0.0)
  end
  begin
     id 25 
     name rhumerus
     direction -0.999916 -0.000939607 0.0129331  
     length 4.74834   
     axis -180 30 90   XYZ
    dof rx ry rz
    limits (-90.0 60.0)
           (-90.0 90.0)
           (-90.0 90.0)
  end
  begin
     id 26 
     name rradius
     direction -1 -4.48956e-011 -1.31752e-027   
     length 2.79907   
     axis -180 30 90   XYZ
    dof rx
    limits (-10.0 170.0)
  end
  begin
     id 27 
     name rwrist
     direction -1 -4.4897e-011 -7.39254e-028   
     length 1.39954   
     axis 2.56395e-016 -90 -90   XYZ
    dof ry
    limits (-180.0 0.0)
  end
  begin
     id 28
     name rhand
     direction -0.999997 -0.00250697 0.000800838   
     length 0.953304   
     axis 9.43423e-016 -90 -90   XYZ
    dof rx rz
    limits (-90.0 90.0)
           (-45.0 45.0)
  end
  begin
     id 29
     name rfingers
     direction -1 -4.48954e-011 -2.95702e-027   
     length 0.763342   
     axis 1.88685e-015 -90 -90   XYZ
    dof rx
    limits (0.0 90.0)
  end
  begin
     id 30
     name rthumb
     direction -0.709701 -0.00217037 0.7045   
     length 1.10115   
     axis -90 -45 9.86935e-015   XYZ
    dof rx rz
    limits (-45.0 45.0)
           (-45.0 45.0)
  end
:hierarchy
  begin
    root lhipjoint rhipjoint lowerback
    lhipjoint lfemur
    lfemur ltibia
    ltibia lfoot
    lfoot ltoes
    rhipjoint rfemur
    rfemur rtibia
    rtibia rfoot
    rfoot rtoes
    lowerback upperback
    upperback thorax
    thorax lowerneck lclavicle rclavicle
    lowerneck upperneck
    upperneck head
    lclavicle lhumerus
    lhumerus lradius
    lradius lwrist
    lwrist lhand lthumb
    lhand lfingers
    rclavicle rhumerus
    rhumerus rradius
    rradius rwrist
    rwrist rhand rthumb
    rhand rfingers
  end

#!OML:ASF G:\ViconDB\ViconDB\414\test\team2\shane.ASF
:FULLY-SPECIFIED
:DEGREES
49
root -3.25451 15.683 -40.7246 21.0547 -11.4343 -14.0951
lowerback 23.698 1.99032 -1.0585
upperback 11.9388 1.97916 -4.85905
thorax 0.10186 1.01955 -5.10092
lowerneck -19.5484 -4.78079 -12.045
upperneck 17.8983 -0.268315 -12.1324
head 9.09869 -2.25471 -2.30507
rclavicle 9.54166e-015 2.22639e-014
rhumerus 57.1165 14.8018 -44.6851
rradius 31.2433
rwrist 45.1
rhand -35.7872 -16.3926
rfingers 7.12502
rthumb -8.90441 -46.1847
lclavicle 9.54166e-015 2.22639e-014
lhumerus 20.613 -17.6438 43.0689
lradius 20.7422
lwrist -1.68818
lhand -48.3717 14.0507
lfingers 7.12502
lthumb -21.0255 42.9309
rfemur -20.5301 -21.1283 27.3723
rtibia 44.4306
rfoot -37.3674 -10.0956
rtoes -18.3065
lfemur -59.2811 25.1136 -10.1482
ltibia 77.8461
lfoot -37.3098 -3.31482
ltoes -16.1303
50
root -3.25859 15.6472 -40.5731 21.6771 -11.2508 -13.8516
lowerback 23.5906 2.20421 -1.47634
upperback 12.1328 2.17315 -5.0563
thorax 0.381844 1.10803 -5.11431
lowerneck -19.5239 -4.9292 -12.1854
upperneck 18.1232 -0.356314 -12.2855
head 9.18064 -2.33222 -2.35689
rclavicle -1.59028e-014 -6.36111e-015
rhumerus 58.9651 15.0661 -45.1362
rradius 30.0492
rwrist 46.9017
rhand -34.8339 -14.9137
rfingers 7.12502
rthumb -7.98451 -44.7429
lclavicle -1.59028e-014 -6.36111e-015
lhumerus 22.0944 -19.4305 40.5841
lradius 21.6157
lwrist 0.675607
lhand -48.8767 14.8075
lfingers 7.12502
lthumb -21.5106 43.6331
rfemur -20.7236 -21.9352 27.2093
rtibia 44.8408
rfoot -36.5537 -12.7285
rtoes -19.0841
lfemur -62.3464 25.3013 -11.7553
ltibia 77.1529
lfoot -37.5408 -3.05015
ltoes -16.2358
51
root -3.27348 15.611 -40.4069 22.121 -11.2379 -13.4615
lowerback 23.6249 2.5413 -2.29943
upperback 12.3383 2.43538 -5.30346
thorax 0.598665 1.21014 -4.97269
lowerneck -19.5649 -5.16588 -12.5987
upperneck 18.4163 -0.552458 -12.0121
head 9.29757 -2.44039 -2.23818
rclavicle -3.18055e-015 -3.81667e-014
rhumerus 60.2961 15.5822 -45.2888
rradius 29.5466
rwrist 47.3278
rhand -33.8619 -14.1032
rfingers 7.12502
rthumb -7.04624 -43.9659
lclavicle -3.18055e-015 -3.81667e-014
lhumerus 23.7003 -20.8154 38.3172
lradius 22.264
lwrist 2.3278
lhand -48.4049 15.2224
lfingers 7.12502
lthumb -21.0575 44.0991
rfemur -20.6176 -22.6091 26.6858
rtibia 45.3083
rfoot -35.415 -16.0345
rtoes -19.9431
lfemur -64.87 25.3313 -13.2381
ltibia 76.4816
lfoot -37.6891 -2.70413
ltoes -16.5587
52
root -3.27893 15.5611 -40.2342 22.541 -11.0195 -13.1428
lowerback 23.5951 2.7708 -2.89837
upperback 12.6117 2.618 -5.51538
thorax 0.922936 1.28211 -4.89937
lowerneck -19.8665 -5.3805 -12.6791
upperneck 18.8107 -0.65242 -12.1858
head 9.49991 -2.54469 -2.32612
rclavicle -1.59028e-014 -4.13472e-014
rhumerus 61.6149 16.1995 -45.2411
rradius 29.2968
rwrist 46.7494
rhand -32.9507 -13.848
rfingers 7.12502
rthumb -6.16662 -43.7383
lclavicle -1.59028e-014 -4.13472e-014
lhumerus 25.3342 -21.7576 36.1189
lradius 22.8947
lwrist 3.81411
lhand -48.0587 14.982
lfingers 7.12502
lthumb -20.7248 43.8953
rfemur -20.4468 -23.3311 26.1803
rtibia 45.7996
rfoot -34.8122 -17.5121
rtoes -20.0328
lfemur -67.3979 25.2277 -14.5355
ltibia 76.0015
lfoot -37.6051 -2.68138
ltoes -16.4007
53
root -3.28155 15.4827 -40.0571 22.9445 -10.836 -12.7364
lowerback 23.5783 3.08454 -3.7154
upperback 12.8176 2.86573 -5.6631
thorax 1.15601 1.36989 -4.64879
lowerneck -20.0579 -5.64005 -13.1022
upperneck 19.2569 -0.838151 -11.844
head 9.70256 -2.6575 -2.19217
rclavicle -1.27222e-014 9.70069e-014
rhumerus 62.622 16.8614 -45.298
rradius 28.9954
rwrist 45.9727
rhand -33.1368 -13.2193
rfingers 7.12502
rthumb -6.34632 -43.1042
lclavicle -1.27222e-014 9.70069e-014
lhumerus 27.1435 -23.1268 33.5001
lradius 23.3995
lwrist 4.91317
lhand -47.8138 15.0532
lfingers 7.12502
lthumb -20.4894 43.992
rfemur -20.2487 -24.2585 25.544
rtibia 46.1843
rfoot -33.8227 -19.7496
rtoes -21.0609
lfemur -69.9534 25.1869 -15.9295
ltibia 75.754
lfoot -37.6337 -3.2268
ltoes -16.8584
54
root -3.28235 15.4032 -39.8709 23.3545 -10.4586 -12.8493
lowerback 23.621 3.26029 -3.96029
upperback 13.0419 3.0478 -5.74917
thorax 1.3961 1.45109 -4.644
lowerneck -20.6856 -5.81843 -13.1181
upperneck 19.8974 -0.799189 -12.0336
head 10.0578 -2.72501 -2.29904
rclavicle 1.59028e-014 -7.79236e-014
rhumerus 63.6498 17.5832 -45.0233
rradius 28.8624
rwrist 45.5177
rhand -32.9364 -13.7513
rfingers 7.12502
rthumb -6.15284 -43.642
lclavicle 1.59028e-014 -7.79236e-014
lhumerus 28.5105 -22.836 32.3188
lradius 23.3567
lwrist 3.91201
lhand -47.9027 14.6828
lfingers 7.12502
lthumb -20.5749 43.6124
rfemur -19.4896 -24.0956 24.9042
rtibia 46.5226
rfoot -34.9897 -18.5007
rtoes -18.8607
lfemur -72.3098 24.9916 -16.4797
ltibia 75.7526
lfoot -37.7788 -3.68063
ltoes -17.2191
55
root -3.27812 15.2866 -39.681 23.6379 -10.0121 -12.9222
lowerback 23.663 3.43933 -4.14603
upperback 13.2114 3.2452 -5.81198
thorax 1.57694 1.54259 -4.65135
lowerneck -20.551 -5.99085 -13.506
upperneck 20.194 -0.932863 -11.8156
head 10.1512 -2.80295 -2.19033
rclavicle 2.54444e-014 9.38264e-014
rhumerus 64.4206 18.3367 -44.6795
rradius 28.701
rwrist 44.9045
rhand -32.802 -13.9457
rfingers 7.12502
rthumb -6.02304 -43.8401
lclavicle 2.54444e-014 9.38264e-014
lhumerus 30.296 -25.7411 27.7621
lradius 24.8823
lwrist 7.75373
lhand -47.8087 14.3443
lfingers 7.12502
lthumb -20.4846 43.2837
rfemur -18.9999 -25.1178 24.7038
rtibia 46.6917
rfoot -33.9244 -21.1928
rtoes -22.1821
lfemur -74.5305 24.6684 -16.9211
ltibia 76.1254
lfoot -37.7191 -4.37648
ltoes -17.947
56
root -3.27438 15.1635 -39.4844 24.0166 -9.50025 -13.0766
lowerback 23.5874 3.71916 -4.69188
upperback 13.329 3.51681 -5.60021
thorax 1.71802 1.63658 -4.16423
lowerneck -20.4889 -6.1047 -13.7495
upperneck 20.4652 -0.92101 -12.0156
head 10.2533 -2.85171 -2.23429
rclavicle -1.90833e-014 -1.74931e-014
rhumerus 65.2979 19.1212 -43.447
rradius 28.6799
rwrist 44.1876
rhand -32.5822 -13.7586
rfingers 7.12502
rthumb -5.81086 -43.6589
lclavicle -1.90833e-014 -1.74931e-014
lhumerus 31.2188 -24.8318 27.6334
lradius 24.5407
lwrist 5.84968
lhand -47.5648 13.8359
lfingers 7.12502
lthumb -20.2502 42.8003
rfemur -18.1513 -24.7899 24.1066
rtibia 46.8444
rfoot -35.8902 -19.8034
rtoes -21.0093
lfemur -76.6461 24.2872 -17.0934
ltibia 76.8022
lfoot -37.6192 -5.45623
ltoes -17.5886
57
root -3.26514 15.0214 -39.2782 24.3518 -9.10166 -13.4868
lowerback 23.3807 3.97897 -4.84241
upperback 13.5478 3.85082 -5.53642
thorax 2.06836 1.78794 -4.06539
lowerneck -20.5224 -6.20844 -13.9333
upperneck 20.7447 -0.959619 -11.945
head 10.3694 -2.89272 -2.20017
rclavicle 9.54166e-015 2.14687e-014
rhumerus 65.8504 19.4311 -43.2332
rradius 28.4675
rwrist 44.9438
rhand -32.1677 -13.2903
rfingers 7.12502
rthumb -5.41062 -43.2012
lclavicle 9.54166e-015 2.14687e-014
lhumerus 32.5893 -25.1167 25.7326
lradius 25.1147
lwrist 7.46889
lhand -47.6448 14.3634
lfingers 7.12502
lthumb -20.3271 43.3196
rfemur -17.3456 -24.9691 23.9717
rtibia 46.9057
rfoot -35.4599 -21.559
rtoes -23.4478
lfemur -78.6691 24.1068 -17.0957
ltibia 77.9514
lfoot -37.4673 -5.82655
ltoes -17.326
58
root -3.25988 14.8832 -39.0637 24.7098 -8.88096 -13.8483
lowerback 23.2186 4.35935 -5.51037
upperback 13.6328 4.2278 -5.45223
thorax 2.21391 1.92721 -3.6686
lowerneck -20.2844 -6.19722 -13.963
upperneck 20.7652 -0.947548 -12.0438
head 10.3362 -2.89051 -2.2213
rclavicle 8.90555e-014 -1.28812e-013
rhumerus 66.2663 19.7805 -42.9897
rradius 28.4482
rwrist 45.6832
rhand -31.5519 -12.4407
rfingers 7.12502
rthumb -4.81604 -42.366
lclavicle 8.90555e-014 -1.28812e-013
lhumerus 33.3841 -24.1755 25.6654
lradius 24.986
lwrist 6.91655
lhand -47.861 14.5251
lfingers 7.12502
lthumb -20.5349 43.4591
rfemur -16.3792 -24.7289 23.673
rtibia 46.9153
rfoot -35.9658 -22.3613
rtoes -22.2897
lfemur -80.6804 24.0477 -17.2599
ltibia 79.4011
lfoot -37.4123 -4.91665
ltoes -16.5991
59
root -3.24578 14.7328 -38.8384 25.2339 -8.68514 -14.3382
lowerback 22.8477 4.66142 -5.98529
upperback 13.6758 4.56185 -5.48874
thorax 2.42812 2.06119 -3.48871
lowerneck -20.1288 -6.15017 -14.0412
upperneck 20.9695 -0.901425 -11.8455
head 10.3828 -2.86102 -2.13234
rclavicle -3.81667e-014 2.22639e-014
rhumerus 66.6505 20.1217 -43.1298
rradius 28.2344
rwrist 46.1924
rhand -31.0449 -12.0423
rfingers 7.12502
rthumb -4.3265 -41.9781
lclavicle -3.81667e-014 2.22639e-014
lhumerus 34.0116 -23.4924 25.0801
lradius 25.0725
lwrist 7.29016
lhand -47.6884 14.586
lfingers 7.12502
lthumb -20.3689 43.5378
rfemur -15.6106 -24.714 23.6623
rtibia 46.7021
rfoot -34.9351 -24.8546
rtoes -20.8992
lfemur -82.8538 24.1109 -17.6115
ltibia 81.2166
lfoot -37.2555 -4.0343
ltoes -16.1777
